<svg xmlns="http://www.w3.org/2000/svg" width="450" height="310" viewBox="0 0 450 310">
  <defs>
    <linearGradient id="bg" x1="0%" y1="0%" x2="100%" y2="100%">
      <stop offset="0%" stop-color="#161b22" />
      <stop offset="100%" stop-color="#0d1117" />
    </linearGradient>
    <linearGradient id="hdr" x1="0%" y1="0%" x2="100%" y2="0%">
      <stop offset="0%" stop-color="#00b3ff" />
      <stop offset="100%" stop-color="#8b5cf6" />
    </linearGradient>
  </defs>

  <!-- Card background -->
  <rect width="450" height="310" rx="8" fill="url(#bg)" stroke="#30363d" stroke-width="1" />

  <!-- Top gradient strip -->
  <rect x="0" y="0" width="450" height="4" rx="8" fill="url(#hdr)" />

  <!-- Header: GitHub icon + username -->
  <svg x="20" y="18" width="16" height="16" viewBox="0 0 16 16" fill="#00b3ff">
    <path d="M8 0C3.58 0 0 3.58 0 8c0 3.54 2.29 6.53 5.47 7.59.4.07.55-.17.55-.38 0-.19-.01-.82-.01-1.49-2.01.37-2.53-.49-2.69-.94-.09-.23-.48-.94-.82-1.13-.28-.15-.68-.52-.01-.53.63-.01 1.08.58 1.23.82.72 1.21 1.87.87 2.33.66.07-.52.28-.87.51-1.07-1.78-.2-3.64-.89-3.64-3.95 0-.87.31-1.59.82-2.15-.08-.2-.36-1.02.08-2.12 0 0 .67-.21 2.2.82.64-.18 1.32-.27 2-.27.68 0 1.36.09 2 .27 1.53-1.04 2.2-.82 2.2-.82.44 1.1.16 1.92.08 2.12.51.56.82 1.27.82 2.15 0 3.07-1.87 3.75-3.65 3.95.29.25.54.73.54 1.48 0 1.07-.01 1.93-.01 2.2 0 .21.15.46.55.38A8.013 8.013 0 0016 8c0-4.42-3.58-8-8-8z"/>
  </svg>
  <text x="44" y="30" font-family="Segoe UI, sans-serif" font-size="14" font-weight="600" fill="#00b3ff">Joker-0111-G&#39;s GitHub Stats</text>

  <!-- Stats list -->
  <rect x="20" y="44" width="410" height="1" fill="#30363d" />
  <text x="28" y="68" font-family="Segoe UI, sans-serif" font-size="15">📦</text>
  <text x="52" y="68" font-family="Segoe UI, sans-serif" font-size="14" fill="#8b949e">Repos</text>
  <text x="422" y="68" text-anchor="end" font-family="Segoe UI, sans-serif" font-size="14" font-weight="600" fill="#c9d1d9">15</text>
  <text x="28" y="116" font-family="Segoe UI, sans-serif" font-size="15">⭐</text>
  <text x="52" y="116" font-family="Segoe UI, sans-serif" font-size="14" fill="#8b949e">Stars</text>
  <text x="422" y="116" text-anchor="end" font-family="Segoe UI, sans-serif" font-size="14" font-weight="600" fill="#c9d1d9">4</text>
  <text x="28" y="164" font-family="Segoe UI, sans-serif" font-size="15">⑂</text>
  <text x="52" y="164" font-family="Segoe UI, sans-serif" font-size="14" fill="#8b949e">Forks</text>
  <text x="422" y="164" text-anchor="end" font-family="Segoe UI, sans-serif" font-size="14" font-weight="600" fill="#c9d1d9">0</text>
  <text x="28" y="212" font-family="Segoe UI, sans-serif" font-size="15">👥</text>
  <text x="52" y="212" font-family="Segoe UI, sans-serif" font-size="14" fill="#8b949e">Followers</text>
  <text x="422" y="212" text-anchor="end" font-family="Segoe UI, sans-serif" font-size="14" font-weight="600" fill="#c9d1d9">4</text>
  <text x="28" y="260" font-family="Segoe UI, sans-serif" font-size="15">❤️</text>
  <text x="52" y="260" font-family="Segoe UI, sans-serif" font-size="14" fill="#8b949e">Following</text>
  <text x="422" y="260" text-anchor="end" font-family="Segoe UI, sans-serif" font-size="14" font-weight="600" fill="#c9d1d9">7</text>
</svg>