<svg xmlns="http://www.w3.org/2000/svg" width="340" height="246" viewBox="0 0 340 246">
  <defs><linearGradient id="lh" x1="0%" y1="0%" x2="100%" y2="0%">
    <stop offset="0%" stop-color="#d4a72c"/><stop offset="50%" stop-color="#0969da"/><stop offset="100%" stop-color="#8250df"/></linearGradient></defs>
  <rect width="340" height="246" rx="14" fill="#fff" stroke="#d0d7de" stroke-width="1.5"/>
  <rect x="0" y="0" width="340" height="6" rx="14" fill="url(#lh)"/>
  <text x="20" y="30" font-family="Segoe UI,sans-serif" font-size="15" font-weight="700" fill="#24292f">📊 Languages</text>
  <rect x="20" y="52" width="8" height="8" rx="2" fill="#DA5B0F"/>
  <text x="34" y="59" font-family="Segoe UI,sans-serif" font-size="12" fill="#24292f">Jupyter Notebook</text>
  <text x="320" y="59" text-anchor="end" font-family="Segoe UI,sans-serif" font-size="11" fill="#57606a">38.1%</text>
  <rect x="34" y="66" width="180" height="4" rx="2" fill="#eaeef2"/>
  <rect x="34" y="66" width="68" height="4" rx="2" fill="#DA5B0F"/>
  <rect x="20" y="88" width="8" height="8" rx="2" fill="#00ADD8"/>
  <text x="34" y="95" font-family="Segoe UI,sans-serif" font-size="12" fill="#24292f">Go</text>
  <text x="320" y="95" text-anchor="end" font-family="Segoe UI,sans-serif" font-size="11" fill="#57606a">29.0%</text>
  <rect x="34" y="102" width="180" height="4" rx="2" fill="#eaeef2"/>
  <rect x="34" y="102" width="52" height="4" rx="2" fill="#00ADD8"/>
  <rect x="20" y="124" width="8" height="8" rx="2" fill="#555555"/>
  <text x="34" y="131" font-family="Segoe UI,sans-serif" font-size="12" fill="#24292f">C</text>
  <text x="320" y="131" text-anchor="end" font-family="Segoe UI,sans-serif" font-size="11" fill="#57606a">10.4%</text>
  <rect x="34" y="138" width="180" height="4" rx="2" fill="#eaeef2"/>
  <rect x="34" y="138" width="18" height="4" rx="2" fill="#555555"/>
  <rect x="20" y="160" width="8" height="8" rx="2" fill="#e16737"/>
  <text x="34" y="167" font-family="Segoe UI,sans-serif" font-size="12" fill="#24292f">MATLAB</text>
  <text x="320" y="167" text-anchor="end" font-family="Segoe UI,sans-serif" font-size="11" fill="#57606a">6.4%</text>
  <rect x="34" y="174" width="180" height="4" rx="2" fill="#eaeef2"/>
  <rect x="34" y="174" width="11" height="4" rx="2" fill="#e16737"/>
  <rect x="20" y="196" width="8" height="8" rx="2" fill="#3572A5"/>
  <text x="34" y="203" font-family="Segoe UI,sans-serif" font-size="12" fill="#24292f">Python</text>
  <text x="320" y="203" text-anchor="end" font-family="Segoe UI,sans-serif" font-size="11" fill="#57606a">4.6%</text>
  <rect x="34" y="210" width="180" height="4" rx="2" fill="#eaeef2"/>
  <rect x="34" y="210" width="8" height="4" rx="2" fill="#3572A5"/>
</svg>